<svg id="Layer_1" data-name="Layer 1" xmlns="http://www.w3.org/2000/svg" viewBox="0 0 512 512"><title>onboarding</title><path d="M473.284,348.89c1.481-25.839-4.036-52.453-13.851-76.585-25.948-63.8-76.3-126.214-129.737-169.154-78.4-63-203.718-23.874-244.482,67.427-19.241,43.094-6.8,138.022,20.141,176.778,52.114,74.978,134.177,74.285,214.039,92.421,57.691,13.1,115.288,17.4,143.778-47.462A125.372,125.372,0,0,0,473.284,348.89Z" fill="#00a79d"/><rect x="95.909" y="202.689" width="378.071" height="151.905" rx="6.268" transform="translate(55.14 -46.972) rotate(10.428)" fill="#fff"/><rect x="135.367" y="198.691" width="51.743" height="34.599" transform="translate(41.757 -25.616) rotate(10.428)" fill="#febb96"/><rect x="220.75" y="231.428" width="236.745" height="34.599" transform="translate(50.62 -57.272) rotate(10.428)" fill="#febb96"/><rect x="128.829" y="244.245" width="51.743" height="14.535" transform="translate(48.079 -23.846) rotate(10.428)" fill="#b29cff"/><rect x="214.212" y="276.983" width="236.745" height="14.535" transform="translate(56.942 -55.502) rotate(10.428)" fill="#b29cff"/><rect x="124.334" y="268.671" width="51.743" height="14.535" transform="translate(52.425 -22.629) rotate(10.428)" fill="#b29cff"/><rect x="119.66" y="294.068" width="51.743" height="14.535" transform="translate(56.945 -21.364) rotate(10.428)" fill="#b29cff"/><rect x="209.717" y="301.408" width="236.745" height="14.535" transform="translate(61.289 -54.285) rotate(10.428)" fill="#b29cff"/><path d="M277.366,230.886l-7.2-1.324.708-3.844,19.6,3.607-.707,3.843-7.2-1.324-3.043,16.536-5.205-.958Z" fill="#fff"/><path d="M299.691,231.021l5.2.958-3.751,20.379-5.2-.957Z" fill="#fff"/><path d="M313.362,244.072c1.13-6.142,7.144-9.581,14.148-8.292,3.889.716,6.9,2.594,8.588,5.313l-3.854,2.18a7.692,7.692,0,0,0-5.216-3.428c-4.209-.775-7.69,1.354-8.4,5.2s1.787,7.071,6,7.846a7.61,7.61,0,0,0,6.1-1.376l2.826,3.41c-2.554,1.968-6.034,2.652-9.955,1.931C316.626,255.569,312.231,250.215,313.362,244.072Z" fill="#fff"/><path d="M352.536,253.539l-3.545,2.3-.949,5.153-5.172-.951,3.751-20.38,5.172.952-1.752,9.521,11.711-7.688,5.785,1.065-10.991,7.369,7.784,13.11-6.071-1.117Z" fill="#fff"/><path d="M391.173,265.015l-.7,3.784-17.414-3.2,3.751-20.38,17,3.128-.7,3.785-11.825-2.176-.814,4.426,10.443,1.921-.675,3.668L379.8,258.046l-.868,4.716Z" fill="#fff"/><path d="M408.743,255.065l-7.2-1.325.707-3.843,19.6,3.607-.708,3.843-7.2-1.324-3.043,16.536-5.2-.958Z" fill="#fff"/><rect x="220.644" y="307.266" width="3.37" height="21.806" transform="translate(61.26 -34.986) rotate(10.428)" fill="#453e9b"/><rect x="225.48" y="308.001" width="1.685" height="21.806" transform="translate(61.459 -35.697) rotate(10.428)" fill="#453e9b"/><rect x="228.644" y="308.584" width="1.685" height="21.806" transform="translate(61.617 -36.26) rotate(10.428)" fill="#453e9b"/><polygon points="231.695 330.976 229.754 330.613 233.838 309.193 235.779 309.556 231.695 330.976" fill="#453e9b"/><rect x="206.49" y="304.661" width="3.37" height="21.806" transform="translate(60.555 -32.467) rotate(10.428)" fill="#453e9b"/><rect x="211.325" y="305.396" width="1.685" height="21.806" transform="matrix(0.983, 0.181, -0.181, 0.983, 60.754, -33.178)" fill="#453e9b"/><rect x="214.489" y="305.979" width="1.685" height="21.806" transform="translate(60.912 -33.741) rotate(10.428)" fill="#453e9b"/><polygon points="217.54 328.371 215.599 328.008 219.684 306.588 221.625 306.951 217.54 328.371" fill="#453e9b"/><polygon points="233.547 331.323 232.577 331.141 236.662 309.721 237.632 309.903 233.547 331.323" fill="#453e9b"/><rect x="238.6" y="310.416" width="1.685" height="21.806" transform="translate(62.113 -38.032) rotate(10.428)" fill="#453e9b"/><polygon points="241.651 332.809 239.71 332.446 243.794 311.025 245.735 311.388 241.651 332.809" fill="#453e9b"/><polygon points="243.504 333.155 242.533 332.973 246.618 311.553 247.588 311.735 243.504 333.155" fill="#453e9b"/><polygon points="235.401 331.669 234.43 331.488 238.515 310.068 239.485 310.249 235.401 331.669" fill="#453e9b"/><rect x="246.597" y="312.043" width="3.37" height="21.806" transform="translate(62.553 -39.605) rotate(10.428)" fill="#453e9b"/><rect x="251.432" y="312.778" width="1.685" height="21.806" transform="translate(62.752 -40.315) rotate(10.428)" fill="#453e9b"/><rect x="254.596" y="313.36" width="1.685" height="21.806" transform="translate(62.91 -40.878) rotate(10.428)" fill="#453e9b"/><polygon points="257.647 335.753 255.706 335.39 259.791 313.969 261.732 314.332 257.647 335.753" fill="#453e9b"/><polygon points="259.5 336.099 258.53 335.917 262.614 314.497 263.585 314.679 259.5 336.099" fill="#453e9b"/><rect x="264.552" y="315.192" width="1.685" height="21.806" transform="translate(63.406 -42.65) rotate(10.428)" fill="#453e9b"/><polygon points="267.603 337.585 265.662 337.222 269.747 315.801 271.688 316.164 267.603 337.585" fill="#453e9b"/><polygon points="269.456 337.931 268.486 337.75 272.57 316.33 273.541 316.511 269.456 337.931" fill="#453e9b"/><polygon points="261.353 336.446 260.382 336.264 264.467 314.844 265.438 315.025 261.353 336.446" fill="#453e9b"/><rect x="273.185" y="316.936" width="3.37" height="21.806" transform="translate(63.878 -44.336) rotate(10.428)" fill="#453e9b"/><rect x="278.021" y="317.671" width="1.685" height="21.806" transform="translate(64.077 -45.047) rotate(10.428)" fill="#453e9b"/><rect x="281.185" y="318.253" width="1.685" height="21.806" transform="translate(64.235 -45.61) rotate(10.428)" fill="#453e9b"/><polygon points="284.235 340.646 282.294 340.283 286.379 318.862 288.32 319.225 284.235 340.646" fill="#453e9b"/><polygon points="286.089 340.992 285.118 340.811 289.203 319.391 290.173 319.572 286.089 340.992" fill="#453e9b"/><rect x="291.141" y="320.085" width="1.685" height="21.806" transform="translate(64.731 -47.382) rotate(10.428)" fill="#453e9b"/><polygon points="294.192 342.478 292.251 342.115 296.335 320.695 298.276 321.058 294.192 342.478" fill="#453e9b"/><polygon points="296.044 342.825 295.074 342.643 299.159 321.223 300.129 321.405 296.044 342.825" fill="#453e9b"/><polygon points="287.942 341.339 286.971 341.158 291.056 319.737 292.026 319.919 287.942 341.339" fill="#453e9b"/><rect x="299.138" y="321.712" width="3.37" height="21.806" transform="translate(65.171 -48.955) rotate(10.428)" fill="#453e9b"/><rect x="303.973" y="322.447" width="1.685" height="21.806" transform="translate(65.37 -49.665) rotate(10.428)" fill="#453e9b"/><rect x="307.137" y="323.029" width="1.685" height="21.806" transform="translate(65.528 -50.228) rotate(10.428)" fill="#453e9b"/><polygon points="310.188 345.422 308.247 345.059 312.332 323.639 314.273 324.002 310.188 345.422" fill="#453e9b"/><polygon points="312.041 345.769 311.07 345.587 315.155 324.167 316.126 324.349 312.041 345.769" fill="#453e9b"/><rect x="317.093" y="324.862" width="1.685" height="21.806" transform="translate(66.024 -52) rotate(10.428)" fill="#453e9b"/><polygon points="320.144 347.254 318.203 346.892 322.288 325.471 324.229 325.834 320.144 347.254" fill="#453e9b"/><polygon points="313.894 346.115 312.923 345.934 317.008 324.513 317.979 324.695 313.894 346.115" fill="#453e9b"/><line x1="212.937" y1="188.161" x2="212.873" y2="188.508" fill="none" stroke="#b7b7b7" stroke-miterlimit="10" stroke-width="0.706"/><line x1="212.746" y1="189.2" x2="185.57" y2="336.865" fill="none" stroke="#b7b7b7" stroke-miterlimit="10" stroke-width="0.706" stroke-dasharray="0.703 0.703"/><line x1="185.507" y1="337.21" x2="185.443" y2="337.558" fill="none" stroke="#b7b7b7" stroke-miterlimit="10" stroke-width="0.706"/><path d="M434.643,354.46c.662.446-.617-.559,0,0Z" fill="#ef7f25"/><rect x="55.481" y="133.651" width="378.071" height="151.905" rx="6.268" transform="translate(-37.942 54.88) rotate(-11.891)" fill="#fff"/><rect x="164.904" y="144.057" width="236.745" height="34.599" transform="translate(-27.169 61.831) rotate(-11.891)" fill="#ef7f25"/><rect x="172.346" y="189.433" width="236.744" height="14.535" transform="translate(-34.292 64.123) rotate(-11.891)" fill="#b29cff"/><rect x="94.585" y="276.983" width="51.743" height="14.535" transform="translate(-55.986 30.92) rotate(-11.891)" fill="#b29cff"/><rect x="177.463" y="213.736" width="236.745" height="14.535" transform="translate(-39.19 65.7) rotate(-11.891)" fill="#b29cff"/><path d="M219.351,168.237l-7.161,1.508-.805-3.824,19.5-4.106.805,3.824-7.16,1.507L228,183.6l-5.18,1.09Z" fill="#fff"/><path d="M240.053,159.885l5.18-1.091,4.269,20.277-5.179,1.091Z" fill="#fff"/><path d="M257.657,166.766c-1.286-6.111,2.971-11.576,9.94-13.043,3.868-.815,7.365-.221,9.963,1.652l-2.739,3.481a7.688,7.688,0,0,0-6.127-1.19c-4.188.882-6.6,4.172-5.794,8s4.34,5.863,8.527,4.982a7.612,7.612,0,0,0,5.12-3.589l3.91,2.08c-1.616,2.79-4.576,4.745-8.476,5.566C265.043,176.162,258.944,172.878,257.657,166.766Z" fill="#fff"/><path d="M297.492,160.647l-2.408,3.472,1.08,5.127-5.147,1.084-4.27-20.277,5.147-1.084,2,9.471,7.915-11.558,5.754-1.212-7.367,10.991,12.181,9.172-6.042,1.272Z" fill="#fff"/><path d="M337.593,156.589l.793,3.766L321.059,164l-4.27-20.277,16.912-3.561.793,3.765-11.764,2.477.927,4.4,10.389-2.188.769,3.65-10.39,2.188.988,4.691Z" fill="#fff"/><path d="M350.068,140.712l-7.161,1.508L342.1,138.4l19.5-4.1.805,3.823-7.16,1.508,3.464,16.454-5.179,1.09Z" fill="#fff"/><rect x="199.919" y="259.046" width="3.37" height="21.806" transform="translate(-51.3 47.337) rotate(-11.892)" fill="#453e9b"/><rect x="204.734" y="258.21" width="1.685" height="21.806" transform="matrix(0.979, -0.206, 0.206, 0.979, -51.021, 48.113)" fill="#453e9b"/><rect x="207.882" y="257.547" width="1.685" height="21.806" transform="translate(-50.86 48.798) rotate(-11.897)" fill="#453e9b"/><polygon points="215.131 278.24 213.198 278.641 208.842 257.275 210.775 256.873 215.131 278.24" fill="#453e9b"/><rect x="185.835" y="262.012" width="3.37" height="21.806" transform="translate(-52.192 44.475) rotate(-11.886)" fill="#453e9b"/><rect x="190.651" y="261.175" width="1.685" height="21.806" transform="translate(-51.978 45.323) rotate(-11.897)" fill="#453e9b"/><rect x="193.799" y="260.512" width="1.685" height="21.806" transform="translate(-51.739 45.92) rotate(-11.889)" fill="#453e9b"/><polygon points="201.048 281.206 199.114 281.607 194.758 260.24 196.691 259.839 201.048 281.206" fill="#453e9b"/><polygon points="216.977 277.857 216.01 278.058 211.654 256.691 212.621 256.49 216.977 277.857" fill="#453e9b"/><rect x="217.788" y="255.461" width="1.685" height="21.806" transform="translate(-50.175 50.742) rotate(-11.886)" fill="#453e9b"/><polygon points="225.037 276.154 223.104 276.556 218.748 255.189 220.681 254.788 225.037 276.154" fill="#453e9b"/><polygon points="226.883 275.771 225.916 275.972 221.56 254.605 222.527 254.405 226.883 275.771" fill="#453e9b"/><polygon points="218.823 277.474 217.856 277.675 213.5 256.308 214.467 256.107 218.823 277.474" fill="#453e9b"/><rect x="225.741" y="253.609" width="3.37" height="21.806" transform="translate(-49.626 52.542) rotate(-11.892)" fill="#453e9b"/><rect x="230.556" y="252.772" width="1.685" height="21.806" transform="translate(-49.348 53.315) rotate(-11.886)" fill="#453e9b"/><rect x="233.704" y="252.109" width="1.685" height="21.806" transform="translate(-49.184 54.004) rotate(-11.897)" fill="#453e9b"/><polygon points="240.953 272.803 239.02 273.204 234.664 251.838 236.597 251.436 240.953 272.803" fill="#453e9b"/><polygon points="242.799 272.42 241.832 272.62 237.476 251.254 238.443 251.053 242.799 272.42" fill="#453e9b"/><rect x="243.61" y="250.024" width="1.685" height="21.806" transform="translate(-48.502 55.945) rotate(-11.886)" fill="#453e9b"/><polygon points="250.859 270.717 248.926 271.118 244.57 249.751 246.503 249.35 250.859 270.717" fill="#453e9b"/><polygon points="252.705 270.334 251.738 270.535 247.382 249.168 248.349 248.967 252.705 270.334" fill="#453e9b"/><polygon points="244.645 272.037 243.678 272.237 239.322 250.87 240.289 250.67 244.645 272.037" fill="#453e9b"/><rect x="252.196" y="248.038" width="3.37" height="21.806" transform="translate(-47.91 57.873) rotate(-11.892)" fill="#453e9b"/><rect x="257.011" y="247.202" width="1.685" height="21.806" transform="translate(-47.641 58.657) rotate(-11.889)" fill="#453e9b"/><rect x="260.16" y="246.539" width="1.685" height="21.806" transform="translate(-47.437 59.291) rotate(-11.889)" fill="#453e9b"/><polygon points="267.408 267.232 265.474 267.634 261.119 246.267 263.052 245.866 267.408 267.232" fill="#453e9b"/><polygon points="269.254 266.849 268.287 267.05 263.931 245.683 264.898 245.482 269.254 266.849" fill="#453e9b"/><rect x="270.065" y="244.453" width="1.685" height="21.806" transform="translate(-46.787 61.274) rotate(-11.886)" fill="#453e9b"/><polygon points="277.314 265.146 275.381 265.548 271.025 244.181 272.958 243.779 277.314 265.146" fill="#453e9b"/><polygon points="279.16 264.763 278.193 264.964 273.837 243.597 274.804 243.396 279.16 264.763" fill="#453e9b"/><polygon points="271.1 266.466 270.133 266.667 265.777 245.3 266.744 245.099 271.1 266.466" fill="#453e9b"/><rect x="278.018" y="242.601" width="3.37" height="21.806" transform="translate(-46.235 63.078) rotate(-11.892)" fill="#453e9b"/><rect x="282.833" y="241.764" width="1.685" height="21.806" transform="translate(-45.967 63.86) rotate(-11.889)" fill="#453e9b"/><rect x="285.982" y="241.102" width="1.685" height="21.806" transform="translate(-45.763 64.494) rotate(-11.889)" fill="#453e9b"/><polygon points="293.23 261.795 291.297 262.196 286.941 240.829 288.874 240.428 293.23 261.795" fill="#453e9b"/><polygon points="295.076 261.412 294.109 261.613 289.753 240.246 290.72 240.045 295.076 261.412" fill="#453e9b"/><rect x="295.887" y="239.016" width="1.685" height="21.806" transform="translate(-45.113 66.476) rotate(-11.886)" fill="#453e9b"/><polygon points="303.136 259.709 301.203 260.11 296.847 238.744 298.78 238.342 303.136 259.709" fill="#453e9b"/><polygon points="296.922 261.029 295.955 261.229 291.599 239.863 292.566 239.662 296.922 261.029" fill="#453e9b"/><line x1="143.543" y1="153.248" x2="143.616" y2="153.593" fill="none" stroke="#b7b7b7" stroke-miterlimit="10" stroke-width="0.706"/><line x1="143.761" y1="154.281" x2="174.698" y2="301.204" fill="none" stroke="#b7b7b7" stroke-miterlimit="10" stroke-width="0.706" stroke-dasharray="0.703 0.703"/><line x1="174.771" y1="301.548" x2="174.843" y2="301.893" fill="none" stroke="#b7b7b7" stroke-miterlimit="10" stroke-width="0.706"/><path d="M411.794,222.893c.781.161-.784-.283,0,0Z" fill="#ef7f25"/><path d="M108.455,249.249q-.738-3.482-1.475-6.961l-.007.01,3.46-.733-.738-3.485-3.46.733.011.006-.747-3.482,6.969-1.476-.733-3.459,3.469-.735.729,3.442,3.479-.736-1.469-6.937-.006.01c.146-.033.293-.067.439-.1l10-2.122.733,3.462,3.452-.731-.731-3.453-3.46.733-.74-3.5-6.96,1.473L119.2,214.3l-10.433,2.209.734,3.468-6.92,1.465,1.473,6.957,3.441-.729.735,3.471-3.457.732.736,3.475-3.474.735-.737-3.48-10.423,2.207-.734-3.467,10.406-2.2-5.891-27.82,3.49-.739-.01-.007q1.066,5.02,2.132,10.041l.078.371,3.473-.736-1.465-6.917,3.468-.735,1.47,6.944,3.493-.74-.01-.006.736,3.473,17.377-3.68.735,3.469,3.483-.737.741,3.5.006-.01-3.46.733.738,3.485,3.46-.733-.01-.006,1.474,6.962,3.485-.738-.01-.006L141,231.442l-3.453.731,1.477,6.971,3.46-.733-.01-.006.736,3.474,6.942-1.471.735,3.47-10.407,2.2,1.472,6.951-3.47.734-.734-3.465-6.971,1.476.01.006-.736-3.474-3.466.734-.735-3.47,6.919-1.465-.736-3.474-17.35,3.675.732,3.456-6.971,1.476ZM127.1,234.4l-.733-3.462-3.452.731.731,3.454,3.461-.733.732,3.461,6.927-1.467-.731-3.452Zm-6.96,1.491-3.44.728.728,3.44,3.44-.729Zm3.289-18.9,3.44-.729-.728-3.439-3.44.728Zm-54.36.613-5.146-24.3,24.3-5.146,5.146,24.3Zm-.925-21.564,3.673,17.347,17.347-3.673L85.49,192.367Zm73.905,6.119-24.3,5.146L112.6,183l24.3-5.146Zm-7.879-20.092-17.347,3.673,3.673,17.346,17.347-3.673ZM74.237,241.974l24.3-5.146,5.146,24.3-24.3,5.146Zm21.564-.926-17.347,3.674,3.673,17.347L99.475,258.4Zm2.345-40.472-1.472-6.952-3.464.734-1.469-6.938,17.349-3.674,1.465,6.922-3.435.728.737,3.481,3.44-.729,1.469,6.937-3.459.733-.731-3.45-3.471.735-.734-3.466-3.471.735.732,3.457-3.5.74Zm2.009-7.718,3.44-.728-.728-3.441-3.44.729ZM87.92,220.905l-6.96,1.473.007-.01,2.2,10.411L76.2,234.254l-.727-3.433-3.443.729,1.465,6.918,13.89-2.942-1.472-6.95,10.409-2.2-.735-3.47-6.943,1.47L87.91,220.9Zm20.535,28.344-3.459.732,2.2,10.412,10.389-2.2-.736-3.475-3.467.734-.735-3.47-3.47.735-.736-3.475Zm-27.5-26.871-.733-3.46-10.4,2.2,1.464,6.915,3.461-.733-.733-3.463,6.95-1.472Zm61.83-16.716-6.915,1.465.736,3.473,3.466-.734,1.467,6.929,3.449-.731ZM87.91,220.9l6.939-1.469-.731-3.453-6.93,1.467.732,3.462Zm51.62,3.6,3.462-.733-.731-3.453-3.454.732.733,3.46Zm4.967,6.2,3.44-.729-.73-3.445-3.44.728Zm-33.722-21.9,3.462-.733-.731-3.453-3.453.732.732,3.46Zm-3.8,33.507-.738-3.485.011.006-3.461.733.735,3.469,3.46-.733Zm35.5-3.893,3.462-.733-.731-3.452-3.454.731.733,3.46Zm-8.622-23.6.738,3.485-.01-.006,3.461-.733-.735-3.469-3.46.733Zm-10.776,35.005-3.441.728.729,3.441,3.44-.729Zm7.711,1.979-3.462.733.731,3.452,3.453-.732-.732-3.46Zm20.839-4.392-3.44.728.728,3.441,3.44-.729Zm-33.69-21.947-.734-3.462-3.452.731.732,3.454,3.46-.733ZM82.747,196.59l-10.395,2.2,2.2,10.394,10.395-2.2Zm50.871.08-2.2-10.394-10.394,2.2,2.2,10.394ZM95.251,255.652l-2.2-10.394-10.394,2.2,2.2,10.394Z" fill="#453e9b"/><circle cx="323.501" cy="60.392" r="7.98" fill="#453e9b"/><circle cx="211.888" cy="53.079" r="5.426" fill="#453e9b"/><path d="M99.9,107.726a5.426,5.426,0,1,1-7.673,0A5.425,5.425,0,0,1,99.9,107.726Z" fill="#453e9b"/><circle cx="459.888" cy="121.766" r="5.426" fill="#453e9b"/><path d="M114.865,392.7a5.426,5.426,0,1,1-7.673,0A5.425,5.425,0,0,1,114.865,392.7Z" fill="#453e9b"/><polygon points="453.242 448.861 445.324 448.861 445.324 440.944 441.561 440.944 441.561 448.861 433.643 448.861 433.643 452.625 441.561 452.625 441.561 460.542 445.324 460.542 445.324 452.625 453.242 452.625 453.242 448.861" fill="#453e9b"/><polygon points="423.13 368.517 415.212 368.517 415.212 360.6 411.448 360.6 411.448 368.517 403.531 368.517 403.531 372.281 411.448 372.281 411.448 380.198 415.212 380.198 415.212 372.281 423.13 372.281 423.13 368.517" fill="#453e9b"/><polygon points="85.697 340.948 77.779 340.948 77.779 333.031 74.016 333.031 74.016 340.948 66.098 340.948 66.098 344.711 74.016 344.711 74.016 352.629 77.779 352.629 77.779 344.711 85.697 344.711 85.697 340.948" fill="#453e9b"/><polygon points="111.028 72.403 103.111 72.403 103.111 64.486 99.347 64.486 99.347 72.403 91.43 72.403 91.43 76.167 99.347 76.167 99.347 84.084 103.111 84.084 103.111 76.167 111.028 76.167 111.028 72.403" fill="#453e9b"/></svg>