<svg xmlns="http://www.w3.org/2000/svg" viewBox="0 0 512 512"><title>onboarding</title><g style="isolation:isolate"><g id="Layer_1" data-name="Layer 1"><path d="M444.705,356.822c.085-82.555-75.361-179.086-150.662-195.686-67.173-14.808-141.429,5.625-188.664,55.628C73.447,250.567,53.9,302.34,74.464,344.048c45.36,91.976,166.694,62.386,246.93,89.306,56.839,19.071,102.155,24.2,119.909-47.668A120.713,120.713,0,0,0,444.705,356.822Z" fill="#00a79d"/><polygon points="193.018 111.095 271.879 62.822 271.764 290.267 192.566 338.935 193.018 111.095" fill="#fff"/><polygon points="205.754 118.788 270.105 78.371 270.006 274.565 205.363 314.436 205.754 118.788" fill="#febb96"/><polygon points="350.691 111.175 271.879 62.822 271.764 290.267 350.914 336.567 350.691 111.175" fill="#fff"/><polygon points="348.348 126.593 270.105 78.56 270.006 274.597 347.959 321.016 348.348 126.593" fill="#febb96"/><polygon points="348.348 126.593 270.105 78.56 270.006 274.597 347.959 321.016 348.348 126.593" fill="#febb96" opacity="0.44" style="mix-blend-mode:multiply"/><polygon points="350.691 111.175 430.227 62.903 430.111 290.347 350.914 336.567 350.691 111.175" fill="#fff"/><polygon points="348.348 126.593 416.374 84.953 416.274 281.147 347.959 321.016 348.348 126.593" fill="#febb96"/><path d="M370.609,166.367c-22.025,17.131-50.169-6.118-73.419,0-8.565,2.447-11.012,18.355-19.578,22.026-22.026,8.566-58.735,9.789-53.841,41.6,1.224,2.447,3.671,3.671,6.119,4.895,12.236,0,14.683-22.026,28.143-14.684,7.342,3.671-4.894,13.46,1.224,19.578,6.118,3.671,11.013,8.566,17.131,9.789,8.566,2.448,17.131,2.448,24.473,0,2.448-1.223,3.671-3.671,6.119-4.894,8.565,0,13.46,8.566,18.354,11.013,9.79,4.894,22.026-3.671,31.815,2.447,11.013,7.342,1.224,23.249,1.224,34.262,0,6.119,8.566,9.789,13.46,13.46,6.118-15.907,3.671-31.814,6.118-47.722,0-7.342,12.237-12.237,19.579-15.907A189.581,189.581,0,0,0,416.3,231.893l.052-102.337C398.243,134.415,385.923,154.882,370.609,166.367Z" fill="#fc5f0a" opacity="0.32" style="mix-blend-mode:multiply"/><path d="M319.985,177.794h-.017c.01-.219.017-.438.017-.659a15.092,15.092,0,0,0-30.184,0c0,.221.008.44.017.659H289.8l.018.046c.267,5.8,4.46,10.3,7.723,14.743l7.351,10s6.132-8.6,9.309-12.827c2.806-3.73,5.542-7.031,5.765-11.926Z" fill="#453e9b"/><path d="M311.621,176.262a6.91,6.91,0,1,1-6.91-6.91A6.91,6.91,0,0,1,311.621,176.262Z" fill="#fff"/><path d="M322.307,355.858a37.276,37.276,0,0,0-13.862.312,89.352,89.352,0,0,0,10.2-8.427c.183.116.351.253.536.363.033.028.061.061.095.088l.013-.028c5.459,3.213,12.3,4.315,19.122,4.458,7.84.164,15.7-3.461,22.843-9.428,0,0-10.8-6.045-22.487-5.486a37.776,37.776,0,0,0-14.251,3.964,141.03,141.03,0,0,0,11.2-14.4c6.355,2.581,13.858,2.283,21.123.853,7.694-1.515,14.6-6.737,20.3-14.091,0,0-11.843-3.6-23.141-.555a38.592,38.592,0,0,0-14.644,8.265c2.8-4.416,5.422-8.927,7.9-13.444,6.327-2.368,11.623-7.525,16.014-13.345,4.723-6.261,6.388-14.76,5.728-24.04,0,0-11.223,5.217-17.611,15.02-3.594,5.516-5.785,13.718-5.654,20.772-2.887,5.282-5.97,10.573-9.3,15.712a39.133,39.133,0,0,0,2.781-18.485c-1.46-11.609-9.273-21.208-9.273-21.208-4.65,8.058-6.868,16.43-5.357,24.125,1.462,7.454,4.115,14.7,9.155,19.612a135.43,135.43,0,0,1-11.824,14.967,38.5,38.5,0,0,0,1.159-16.483c-2.059-11.518-10.36-20.7-10.36-20.7-4.226,8.288-6.007,16.763-4.1,24.37,1.658,6.614,4.252,13.023,8.59,17.628A84.151,84.151,0,0,1,303.583,356.9a38.982,38.982,0,0,0,1.554-17.883c-2.058-11.517-10.359-20.7-10.359-20.7-4.226,8.289-6.007,16.764-4.1,24.37,1.585,6.322,4.044,12.435,8.043,16.986a67.944,67.944,0,0,1-16.377,6.013,1.056,1.056,0,0,0,.433,2.065,69.981,69.981,0,0,0,17.457-6.516c.366.346.715.709,1.1,1.03.057-.107.1-.228.159-.335,4.5,4.1,10.611,6.656,16.94,8.336,7.58,2.012,16.079.349,24.425-3.762C342.861,366.5,333.8,358.076,322.307,355.858Z" fill="#ef7f25"/><path d="M81.484,318.439a37.287,37.287,0,0,1,13.063,4.65,89.454,89.454,0,0,1-7.038-11.2c-.209.052-.411.129-.622.176-.04.016-.077.038-.118.054l0-.031c-6.192,1.335-13.028.235-19.555-1.773-7.495-2.307-13.823-8.219-18.726-16.125,0,0,12.153-2.348,23.072,1.854a37.745,37.745,0,0,1,12.285,8.239,140.931,140.931,0,0,1-6.112-17.193c-6.845.455-13.874-2.185-20.322-5.824-6.829-3.855-11.748-10.982-14.849-19.754,0,0,12.374.3,22.144,6.741a38.607,38.607,0,0,1,11.308,12.445c-1.271-5.071-2.345-10.178-3.28-15.245-5.263-4.235-8.671-10.794-11.011-17.7-2.518-7.428-1.43-16.019,2.111-24.623,0,0,9.017,8.479,12,19.792,1.679,6.365,1.183,14.84-1.156,21.5,1.081,5.922,2.347,11.913,3.9,17.839a39.131,39.131,0,0,1,3.166-18.423c5.031-10.563,15.465-17.223,15.465-17.223,1.883,9.111,1.36,17.756-2.492,24.587-3.729,6.617-8.523,12.661-14.851,15.744a135.367,135.367,0,0,0,6.524,17.923,38.48,38.48,0,0,1,4.078-16.012c5.572-10.289,16.336-16.4,16.336-16.4,1.409,9.2.438,17.8-3.762,24.425-3.652,5.759-8.127,11.028-13.692,14.038a84.126,84.126,0,0,0,9.587,14.393,39,39,0,0,1,4.141-17.466c5.572-10.288,16.337-16.4,16.337-16.4,1.409,9.2.438,17.8-3.762,24.424-3.49,5.5-7.745,10.536-12.971,13.6a68,68,0,0,0,13.66,10.853,1.055,1.055,0,0,1-1.059,1.824,69.956,69.956,0,0,1-14.528-11.669c-.456.214-.9.449-1.371.631-.02-.119-.026-.248-.045-.368-5.56,2.476-12.164,2.987-18.7,2.594-7.828-.47-15.375-4.718-22.007-11.243C58.627,322.089,69.881,316.936,81.484,318.439Z" fill="#ef7f25"/><rect x="98.288" y="206.701" width="195.762" height="183.58" fill="#fff"/><rect x="98.288" y="206.701" width="195.762" height="33.016" fill="#b29cff"/><path d="M133.586,224.206a9.667,9.667,0,1,1-9.667-9.667A9.666,9.666,0,0,1,133.586,224.206Z" fill="#453e9b"/><path d="M169.605,224.206a9.667,9.667,0,1,1-9.667-9.667A9.666,9.666,0,0,1,169.605,224.206Z" fill="#453e9b"/><path d="M205.624,224.206a9.667,9.667,0,1,1-9.667-9.667A9.666,9.666,0,0,1,205.624,224.206Z" fill="#453e9b"/><path d="M241.642,224.206a9.667,9.667,0,1,1-9.666-9.667A9.665,9.665,0,0,1,241.642,224.206Z" fill="#453e9b"/><path d="M277.661,224.206A9.667,9.667,0,1,1,268,214.539,9.666,9.666,0,0,1,277.661,224.206Z" fill="#453e9b"/><rect x="115.993" y="190.93" width="4.655" height="33.276" fill="#ef7f25"/><rect x="126.059" y="190.93" width="4.655" height="33.276" fill="#ef7f25"/><rect x="152.577" y="190.93" width="4.655" height="33.276" fill="#ef7f25"/><rect x="162.643" y="190.93" width="4.655" height="33.276" fill="#ef7f25"/><rect x="188.596" y="190.93" width="4.655" height="33.276" fill="#ef7f25"/><rect x="198.662" y="190.93" width="4.655" height="33.276" fill="#ef7f25"/><rect x="224.615" y="190.93" width="4.655" height="33.276" fill="#ef7f25"/><rect x="234.681" y="190.93" width="4.655" height="33.276" fill="#ef7f25"/><rect x="260.634" y="190.93" width="4.655" height="33.276" fill="#ef7f25"/><rect x="270.7" y="190.93" width="4.655" height="33.276" fill="#ef7f25"/><rect x="125.548" y="260.12" width="142.447" height="6.508" fill="#ef7f25"/><rect x="125.548" y="275.499" width="142.447" height="6.508" fill="#ef7f25"/><rect x="124.246" y="292.66" width="22.038" height="22.038" fill="#b29cff"/><rect x="153.414" y="292.66" width="22.038" height="22.038" fill="#b29cff"/><rect x="183.513" y="292.66" width="22.038" height="22.038" fill="#b29cff"/><polyline points="214.555 314.699 214.555 292.66 236.594 292.66 236.594 314.699 214.555 314.699" fill="#b29cff"/><rect x="244.654" y="292.66" width="22.038" height="22.038" fill="#b29cff"/><rect x="124.246" y="319.822" width="22.038" height="22.038" fill="#b29cff"/><rect x="154.348" y="319.822" width="22.038" height="22.038" fill="#b29cff"/><rect x="184.45" y="319.822" width="22.038" height="22.038" fill="#b29cff"/><rect x="214.552" y="319.822" width="22.038" height="22.038" fill="#b29cff"/><rect x="244.654" y="319.822" width="22.038" height="22.038" fill="#b29cff"/><rect x="184.45" y="346.984" width="22.038" height="22.038" fill="#b29cff"/><rect x="214.552" y="346.984" width="22.038" height="22.038" fill="#b29cff"/><rect x="244.654" y="346.984" width="22.038" height="22.038" fill="#b29cff"/><path d="M194.532,317.233c-6.814.35-12.493,6.647-13.776,13.093-1.261,6.338,2.911,13.28,8.759,15.724a17.435,17.435,0,0,0,12.392.514,14.919,14.919,0,0,0,7.987-7.367c3.637-7.27,1.079-15.658-5.15-20.589-7.768-6.15-18.762-5.041-26.483.595-.584.426-.019,1.41.572.979,6.348-4.634,15.177-6.344,22.352-2.552,6.389,3.376,10.7,10.606,8.884,17.872a14.8,14.8,0,0,1-5.858,8.61c-3.426,2.33-7.752,2.628-11.709,1.707a13.389,13.389,0,0,1-7.7-4.719,14.483,14.483,0,0,1-3.172-8.383c.032-6.7,6.04-14,12.9-14.351.726-.037.73-1.17,0-1.133Z" fill="#453e9b"/><path d="M459.713,227.781c12.96,0,12.981-20.142,0-20.142-12.96,0-12.982,20.142,0,20.142Z" fill="#453e9b"/><path d="M70.13,201c12.96,0,12.982-20.141,0-20.141-12.96,0-12.981,20.141,0,20.141Z" fill="#453e9b"/><path d="M449.985,183.967c9.916,0,9.932-15.411,0-15.411-9.916,0-9.933,15.411,0,15.411Z" fill="#453e9b"/><path d="M449.985,286.459c9.916,0,9.932-15.411,0-15.411-9.916,0-9.933,15.411,0,15.411Z" fill="none" stroke="#453e9b" stroke-miterlimit="10"/><path d="M146.284,164.121c9.916,0,9.932-15.411,0-15.411-9.916,0-9.932,15.411,0,15.411Z" fill="none" stroke="#453e9b" stroke-miterlimit="10"/><polygon points="127.841 423.536 120.149 423.536 120.149 415.844 116.493 415.844 116.493 423.536 108.8 423.536 108.8 427.193 116.493 427.193 116.493 434.885 120.149 434.885 120.149 427.193 127.841 427.193 127.841 423.536" fill="#453e9b"/></g></g></svg>